<svg version="1.1" viewBox="0.0 0.0 846.9553805774278 160.85826771653544" fill="none" stroke="none" stroke-linecap="square" stroke-miterlimit="10" xmlns:xlink="http://www.w3.org/1999/xlink" xmlns="http://www.w3.org/2000/svg"><clipPath id="p.0"><path d="m0 0l846.9554 0l0 160.85826l-846.9554 0l0 -160.85826z" clip-rule="nonzero"/></clipPath><g clip-path="url(#p.0)"><path fill="#000000" fill-opacity="0.0" d="m0 0l846.9554 0l0 160.85826l-846.9554 0z" fill-rule="evenodd"/><path fill="#000000" fill-opacity="0.0" d="m-3.007874 5.8569555l966.01575 0l0 104.7874l-966.01575 0z" fill-rule="evenodd"/><path fill="#121212" d="m42.992126 44.184402l-10.828125 37.578125q7.25 -13.25 12.328125 -19.921875q7.90625 -10.328125 15.40625 -15.0q4.421875 -2.65625 9.25 -2.65625q4.171875 0 6.921875 2.671875q2.75 2.65625 2.75 6.828125q0 4.078125 -1.921875 10.65625l-5.90625 21.171875q13.578125 -25.421875 25.75 -35.671875q6.75 -5.65625 13.328125 -5.65625q3.828125 0 6.28125 2.625q2.46875 2.625 2.46875 8.125q0 4.828125 -1.5 10.25l-9.171875 32.40625q-3.0 10.578125 -3.0 11.75q0 1.171875 0.75 2.0q0.5 0.578125 1.34375 0.578125q0.828125 0 2.90625 -1.578125q4.75 -3.671875 8.921875 -9.671875l2.75 1.75q-2.078125 3.34375 -7.375 9.171875q-5.296875 5.828125 -9.046875 7.921875q-3.75 2.078125 -6.90625 2.078125q-2.921875 0 -4.890625 -2.0q-1.953125 -2.0 -1.953125 -4.921875q0 -4.0 3.421875 -16.078125l7.578125 -26.75q2.59375 -9.25 2.75 -10.25q0.25 -1.578125 0.25 -3.078125q0 -2.078125 -0.90625 -3.25q-1.0 -1.171875 -2.25 -1.171875q-3.5 0 -7.421875 3.59375q-11.5 10.578125 -21.5 29.65625q-6.578125 12.578125 -12.328125 32.25l-12.578125 0l14.234375 -50.40625q2.34375 -8.171875 2.34375 -10.921875q0 -2.25 -0.921875 -3.328125q-0.921875 -1.09375 -2.25 -1.09375q-2.75 0 -5.828125 2.0q-5.0 3.25 -12.875 13.921875q-7.875 10.65625 -12.203125 20.40625q-2.09375 4.59375 -9.921875 29.421875l-12.328126 0l15.406251 -54.0l2.0 -7.0q0.59375 -1.578125 0.59375 -2.328125q0 -1.828125 -1.671875 -3.28125q-1.671875 -1.46875 -4.25 -1.46875q-1.078125 0 -6.000001 1.0l-0.75 -3.078125l28.75 -5.25zm166.3206 0l-16.25 56.484375l-1.828125 7.59375q-0.25 1.078125 -0.25 1.828125q0 1.328125 0.828125 2.328125q0.671875 0.75 1.671875 0.75q1.078125 0 2.828125 -1.328125q3.25 -2.421875 8.671875 -10.0l2.828125 2.0q-5.75 8.671875 -11.84375 13.21875q-6.078125 4.53125 -11.234375 4.53125q-3.59375 0 -5.390625 -1.796875q-1.78125 -1.78125 -1.78125 -5.203125q0 -4.078125 1.828125 -10.75l1.75 -6.25q-10.90625 14.25 -20.078125 19.921875q-6.578125 4.078125 -12.90625 4.078125q-6.09375 0 -10.515625 -5.03125q-4.40625 -5.046875 -4.40625 -13.890625q0 -13.25 7.953125 -27.953125q7.96875 -14.703125 20.21875 -23.53125q9.578125 -7.0 18.078125 -7.0q5.078125 0 8.453125 2.671875q3.375 2.65625 5.125 8.828125l3.0 -9.5l13.25 -2.0zm-29.671875 4.328125q-5.328125 0 -11.328125 5.0q-8.5 7.078125 -15.125 21.0q-6.625 13.90625 -6.625 25.15625q0 5.671875 2.828125 8.96875q2.84375 3.28125 6.515625 3.28125q9.078125 0 19.734375 -13.40625q14.25 -17.84375 14.25 -36.578125q0 -7.09375 -2.75 -10.25q-2.75 -3.171875 -7.5 -3.171875zm43.84375 0.328125l28.75 -4.65625l-12.0 40.484375q14.57814 -24.90625 26.48439 -34.828125q6.75 -5.65625 11.0 -5.65625q2.75 0 4.328125 1.625q1.59375 1.625 1.59375 4.703125q0 5.5 -2.828125 10.5q-2.0 3.75 -5.75 3.75q-1.921875 0 -3.296875 -1.25q-1.375 -1.25 -1.703125 -3.828125q-0.171875 -1.59375 -0.75 -2.09375q-0.671875 -0.65625 -1.59375 -0.65625q-1.40625 0 -2.65625 0.65625q-2.171875 1.171875 -6.59375 6.5q-6.9062653 8.171875 -14.98439 21.171875q-3.5 5.5 -6.0 12.40625q-3.5 9.5 -4.0 11.421875l-2.671875 10.5l-12.75 0l15.421875 -51.75q2.65625 -9.0 2.65625 -12.828125q0 -1.5 -1.25 -2.5q-1.65625 -1.328125 -4.40625 -1.328125q-1.75 0 -6.421875 0.75l-0.578125 -3.09375zm106.31886 -47.75l-23.65625 81.921875l9.5 -8.078125q15.578125 -13.171875 20.234375 -19.5q1.5 -2.09375 1.5 -3.171875q0 -0.75 -0.5 -1.40625q-0.5 -0.671875 -1.953125 -1.09375q-1.453125 -0.421875 -5.125 -0.421875l-2.921875 0l0.921875 -3.15625l36.421875 0l-0.84375 3.15625q-6.25 0.34375 -10.796875 1.96875q-4.53125 1.625 -8.78125 4.78125q-8.421875 6.25 -11.078125 8.671875l-7.171875 6.328125q1.828125 6.0 4.5 16.75q4.5 17.828125 6.078125 21.171875q1.59375 3.328125 3.25 3.328125q1.421875 0 3.34375 -1.421875q4.328125 -3.15625 9.25 -10.078125l2.90625 2.078125q-9.078125 11.421875 -13.921875 15.046875q-4.828125 3.625 -8.828125 3.625q-3.5 0 -5.40625 -2.75q-3.328125 -4.921875 -11.078125 -38.75l-11.421875 9.921875l-8.578125 29.578125l-13.0 0l27.65625 -95.078125l2.34375 -8.078125q0.40625 -2.093749 0.40625 -3.671874q0 -2.0 -1.546875 -3.328125q-1.53125 -1.34375 -4.453125 -1.34375q-1.90625 0 -6.078125 0.84375l0 -2.921875l28.828125 -4.921875zm53.667236 52.75q3.921875 0 6.578125 2.71875q2.671875 2.703125 2.671875 6.53125q0 3.84375 -2.71875 6.546875q-2.703125 2.703125 -6.53125 2.703125q-3.828125 0 -6.546875 -2.703125q-2.703125 -2.703125 -2.703125 -6.546875q0 -3.828125 2.703125 -6.53125q2.71875 -2.71875 6.546875 -2.71875zm104.82031 -4.5l-2.40625 8.671875l-13.921875 0q1.578125 4.5 1.578125 8.421875q0 10.984375 -9.328125 19.578125q-9.421875 8.578125 -25.828125 9.5q-8.828125 2.65625 -13.25 6.328125q-1.671875 1.328125 -1.671875 2.75q0 1.671875 1.5 3.046875q1.5 1.375 7.59375 2.78125l16.15625 3.75q13.421875 3.171875 17.75 7.5q4.25 4.421875 4.25 10.171875q0 6.828125 -5.046875 12.5q-5.03125 5.671875 -14.75 8.875q-9.703125 3.203125 -21.453125 3.203125q-10.328125 0 -18.828125 -2.453125q-8.5 -2.453125 -12.15625 -6.625q-3.671875 -4.171875 -3.671875 -8.578125q0 -3.59375 2.375 -7.46875q2.375 -3.875 5.953125 -6.375q2.25 -1.578125 12.75 -7.5q-3.828125 -3.0 -3.828125 -6.578125q0 -3.328125 3.375 -7.078125q3.375 -3.75 14.28125 -8.25q-9.15625 -1.75 -14.53125 -7.671875q-5.375 -5.921875 -5.375 -13.15625q0 -11.84375 10.375 -21.171875q10.375 -9.328125 27.609375 -9.328125q6.25 0 10.25 1.25q4.0 1.25 7.75 3.90625l22.5 0zm-28.90625 13.09375q0 -6.671875 -3.71875 -10.5q-3.703125 -3.84375 -9.703125 -3.84375q-9.40625 0 -15.53125 9.46875q-6.125 9.453125 -6.125 19.703125q0 6.40625 3.90625 10.5q3.921875 4.078125 9.5 4.078125q4.421875 0 8.546875 -2.40625q4.125 -2.421875 6.953125 -6.671875q2.828125 -4.25 4.5 -10.828125q1.671875 -6.59375 1.671875 -9.5zm-39.921875 57.15625q-6.75 3.078125 -10.203125 7.90625q-3.453125 4.84375 -3.453125 9.515625q0 5.5 5.0 9.078125q7.15625 5.171875 21.0 5.171875q11.90625 0 20.359375 -4.046875q8.46875 -4.046875 8.46875 -10.453125q0 -3.25 -3.125 -6.171875q-3.125 -2.921875 -12.125 -4.75q-4.921875 -1.0 -25.921875 -6.25zm74.171875 -70.75l28.75 -4.65625l-12.0 40.484375q14.578125 -24.90625 26.484375 -34.828125q6.75 -5.65625 11.0 -5.65625q2.75 0 4.328125 1.625q1.59375 1.625 1.59375 4.703125q0 5.5 -2.828125 10.5q-2.0 3.75 -5.75 3.75q-1.921875 0 -3.296875 -1.25q-1.375 -1.25 -1.703125 -3.828125q-0.171875 -1.59375 -0.75 -2.09375q-0.671875 -0.65625 -1.59375 -0.65625q-1.40625 0 -2.65625 0.65625q-2.171875 1.171875 -6.59375 6.5q-6.90625 8.171875 -14.984375 21.171875q-3.5 5.5 -6.0 12.40625q-3.5 9.5 -4.0 11.421875l-2.671875 10.5l-12.75 0l15.421875 -51.75q2.65625 -9.0 2.65625 -12.828125q0 -1.5 -1.25 -2.5q-1.65625 -1.328125 -4.40625 -1.328125q-1.75 0 -6.421875 0.75l-0.578125 -3.09375zm95.6626 -37.75q3.5 0 5.90625 2.421875q2.421875 2.421875 2.421875 5.921874q0 3.40625 -2.46875 5.875q-2.453125 2.453125 -5.859375 2.453125q-3.421875 0 -5.890625 -2.453125q-2.453125 -2.46875 -2.453125 -5.875q0 -3.499999 2.421875 -5.921874q2.421875 -2.421875 5.921875 -2.421875zm1.078125 33.09375l-16.5 58.40625q-1.671875 5.921875 -1.671875 7.078125q0 1.34375 0.796875 2.171875q0.796875 0.828125 1.875 0.828125q1.25 0 3.0 -1.328125q4.75 -3.75 9.578125 -10.671875l2.921875 1.921875q-5.671875 8.671875 -13.328125 14.578125q-5.671875 4.421875 -10.84375 4.421875q-3.40625 0 -5.578125 -2.03125q-2.171875 -2.046875 -2.171875 -5.140625q0 -3.078125 2.09375 -10.25l10.828125 -37.328125q2.671875 -9.15625 2.671875 -11.5q0 -1.828125 -1.296875 -2.984375q-1.296875 -1.171875 -3.546875 -1.171875q-1.828125 0 -7.578125 0.90625l0 -3.25l28.75 -4.65625zm45.835632 0l-11.09375 37.90625q15.59375 -23.25 23.875 -30.578125q8.296875 -7.328125 15.953125 -7.328125q4.171875 0 6.875 2.75q2.71875 2.75 2.71875 7.15625q0 5.0 -2.421875 13.34375l-10.171875 35.078125q-1.75 6.078125 -1.75 7.40625q0 1.171875 0.671875 1.96875q0.671875 0.78125 1.421875 0.78125q1.0 0 2.40625 -1.078125q4.421875 -3.5 9.671875 -10.671875l2.578125 1.59375q-7.75 11.078125 -14.65625 15.828125q-4.84375 3.25 -8.671875 3.25q-3.078125 0 -4.921875 -1.875q-1.828125 -1.875 -1.828125 -5.046875q0 -4.0 2.828125 -13.75l9.671875 -33.484375q1.828125 -6.25 1.828125 -9.75q0 -1.671875 -1.078125 -2.703125q-1.078125 -1.046875 -2.671875 -1.046875q-2.328125 0 -5.578125 2.0q-6.171875 3.75 -12.84375 12.375q-6.65625 8.609375 -14.0625 22.03125q-3.921875 7.078125 -6.5 15.5l-4.171875 13.75l-12.5 0l15.171875 -52.15625q2.65625 -9.421875 2.65625 -11.34375q0 -1.828125 -1.453125 -3.203125q-1.453125 -1.375 -3.625 -1.375q-1.0 0 -3.5 0.328125l-3.171875 0.5l-0.5 -3.0l28.84375 -5.15625zm139.98438 -43.09375l-28.671875 98.328125q-2.328125 8.0 -2.328125 10.5q0 0.84375 0.703125 1.59375q0.71875 0.75 1.46875 0.75q1.078125 0 2.578125 -1.09375q2.828125 -2.0 9.5 -10.0l2.828125 1.75q-6.0 8.34375 -12.125 13.515625q-6.125 5.15625 -11.453125 5.15625q-2.828125 0 -4.671875 -2.0q-1.828125 -2.0 -1.828125 -5.671875q0 -4.75 2.5 -12.75l3.25 -10.328125q-12.078125 18.671875 -22.0 25.828125q-6.828125 4.921875 -13.078125 4.921875q-6.328125 0 -11.046875 -5.625q-4.703125 -5.625 -4.703125 -15.296875q0 -12.40625 7.90625 -26.484375q7.921875 -14.09375 20.921875 -22.921875q10.25 -7.078125 18.828125 -7.078125q4.5 0 7.75 1.828125q3.25 1.828125 6.421875 6.078125l8.171875 -29.000002q0.90625 -3.078125 1.5 -4.90625q1.0 -3.343749 1.0 -5.499999q0 -1.75 -1.25 -2.921875q-1.75 -1.421875 -4.5 -1.421875q-1.921875 0 -6.34375 0.59375l0 -3.09375l28.671875 -4.75zm-30.921875 59.171875q0 -5.328125 -3.078125 -8.578125q-3.078125 -3.25 -7.828125 -3.25q-10.5 0 -21.875 17.328125q-11.375 17.328125 -11.375 33.15625q0 6.25 2.75 9.546875q2.75 3.296875 6.578125 3.296875q8.671875 0 21.75 -18.75q13.078125 -18.75 13.078125 -32.75zm51.171875 -16.078125q2.84375 4.828125 3.921875 9.046875q1.078125 4.203125 2.171875 16.53125l3.65625 41.0q5.0 -6.0 14.5 -19.0q4.578125 -6.34375 11.328125 -17.25q4.09375 -6.671875 5.0 -9.328125q0.5 -1.34375 0.5 -2.75q0 -0.921875 -0.578125 -1.5q-0.578125 -0.59375 -3.046875 -1.375q-2.453125 -0.796875 -4.078125 -2.921875q-1.625 -2.125 -1.625 -4.875q0 -3.421875 2.0 -5.5q2.0 -2.078125 5.0 -2.078125q3.671875 0 6.25 3.046875q2.578125 3.03125 2.578125 8.359375q0 6.59375 -4.5 15.046875q-4.5 8.453125 -17.328125 25.953125q-12.828125 17.5 -31.078125 38.171875q-12.578125 14.25 -18.671875 17.953125q-6.078125 3.703125 -10.40625 3.703125q-2.59375 0 -4.546875 -1.953125q-1.953125 -1.953125 -1.953125 -4.546875q0 -3.25 2.703125 -5.921875q2.703125 -2.65625 5.875 -2.65625q1.671875 0 2.75 0.75q0.671875 0.421875 1.46875 2.375q0.78125 1.953125 1.453125 2.625q0.40625 0.421875 1.0 0.421875q0.5 0 1.75 -0.84375q4.578125 -2.828125 10.65625 -9.0q8.0 -8.15625 11.84375 -13.328125l-4.671875 -52.828125q-1.171875 -13.078125 -3.5 -15.90625q-2.328125 -2.84375 -7.828125 -2.84375q-1.75 0 -6.25 0.5l-0.75 -3.078125l24.40625 -6.0z" fill-rule="nonzero"/></g></svg>