<svg version="1.1" viewBox="0.0 0.0 860.9475065616798 158.5721784776903" fill="none" stroke="none" stroke-linecap="square" stroke-miterlimit="10" xmlns:xlink="http://www.w3.org/1999/xlink" xmlns="http://www.w3.org/2000/svg"><clipPath id="p.0"><path d="m0 0l860.9475 0l0 158.57217l-860.9475 0l0 -158.57217z" clip-rule="nonzero"/></clipPath><g clip-path="url(#p.0)"><path fill="#000000" fill-opacity="0.0" d="m0 0l860.9475 0l0 158.57217l-860.9475 0z" fill-rule="evenodd"/><path fill="#000000" fill-opacity="0.0" d="m-3.007874 5.8569555l966.01575 0l0 104.7874l-966.01575 0z" fill-rule="evenodd"/><path fill="#121212" d="m33.992126 57.262527q8.328125 -8.328125 9.828125 -9.578125q3.75 -3.171875 8.078125 -4.921875q4.34375 -1.75 8.59375 -1.75q7.15625 0 12.328125 4.171875q5.171875 4.15625 6.921875 12.078125q8.578125 -10.0 14.484375 -13.125q5.921875 -3.125 12.171875 -3.125q6.09375 0 10.796875 3.125q4.703125 3.125 7.453125 10.203125q1.84375 4.84375 1.84375 15.171875l0 32.828125q0 7.171875 1.078125 9.828125q0.828125 1.84375 3.078125 3.140625q2.25 1.28125 7.328125 1.28125l0 3.0l-37.65625 0l0 -3.0l1.578125 0q4.921875 0 7.671875 -1.921875q1.921875 -1.328125 2.75 -4.25q0.328125 -1.40625 0.328125 -8.078125l0 -32.828125q0 -9.328125 -2.25 -13.171875q-3.25 -5.328125 -10.40625 -5.328125q-4.421875 0 -8.890625 2.21875q-4.453125 2.203125 -10.78125 8.203125l-0.171875 0.90625l0.171875 3.59375l0 36.40625q0 7.828125 0.875 9.75q0.875 1.921875 3.28125 3.21875q2.421875 1.28125 8.265625 1.28125l0 3.0l-38.59375 0l0 -3.0q6.34375 0 8.71875 -1.5q2.375 -1.5 3.28125 -4.5q0.421875 -1.421875 0.421875 -8.25l0 -32.828125q0 -9.328125 -2.75 -13.421875q-3.671875 -5.328125 -10.25 -5.328125q-4.5 0 -8.90625 2.421875q-6.921875 3.65625 -10.671875 8.25l0 40.90625q0 7.5 1.03125 9.75q1.046875 2.25 3.09375 3.375q2.046875 1.125 8.296875 1.125l0 3.0l-37.75 0l0 -3.0q5.25 0 7.328125 -1.125q2.078126 -1.125 3.156251 -3.578125q1.09375 -2.46875 1.09375 -9.546875l0 -29.15625q0 -12.59375 -0.75 -16.25q-0.578125 -2.75 -1.828125 -3.796875q-1.25 -1.046875 -3.421876 -1.046875q-2.328125 0 -5.578125 1.25l-1.2499995 -3.0l23.0 -9.328125l3.578125 0l0 16.25zm153.32002 51.328125q-11.75 9.078125 -14.75 10.5q-4.5 2.078125 -9.578125 2.078125q-7.921875 0 -13.046875 -5.40625q-5.125 -5.421875 -5.125 -14.25q0 -5.59375 2.5 -9.671875q3.421875 -5.671875 11.875 -10.65625q8.46875 -5.0 28.125 -12.171875l0 -3.0q0 -11.421875 -3.625 -15.671875q-3.625 -4.25 -10.53125 -4.25q-5.25 0 -8.34375 2.84375q-3.15625 2.828125 -3.15625 6.5l0.15625 4.828125q0 3.828125 -1.953125 5.921875q-1.953125 2.078125 -5.125 2.078125q-3.078125 0 -5.046875 -2.15625q-1.953125 -2.171875 -1.953125 -5.921875q0 -7.171875 7.328125 -13.171875q7.34375 -6.0 20.59375 -6.0q10.15625 0 16.65625 3.421875q4.921875 2.578125 7.25 8.078125q1.5 3.578125 1.5 14.671875l0 25.90625q0 10.921875 0.40625 13.375q0.421875 2.453125 1.375 3.296875q0.96875 0.828125 2.21875 0.828125q1.328125 0 2.328125 -0.578125q1.75 -1.09375 6.75 -6.09375l0 4.671875q-9.328125 12.5 -17.828125 12.5q-4.078125 0 -6.5 -2.828125q-2.421875 -2.84375 -2.5 -9.671875zm0 -5.421875l0 -29.078125q-12.578125 5.0 -16.25 7.078125q-6.578125 3.671875 -9.421875 7.671875q-2.828125 4.0 -2.828125 8.75q0 6.0 3.578125 9.96875q3.59375 3.953125 8.265625 3.953125q6.328125 0 16.65625 -8.34375zm54.839127 -62.15625l0 17.171875q9.578125 -17.171875 19.65625 -17.171875q4.578125 0 7.578125 2.796875q3.0 2.78125 3.0 6.453125q0 3.25 -2.171875 5.5q-2.15625 2.25 -5.15625 2.25q-2.921875 0 -6.546875 -2.875q-3.609375 -2.875 -5.359375 -2.875q-1.5 0 -3.25 1.671875q-3.75 3.40625 -7.75 11.25l0 36.578125q0 6.328125 1.578125 9.578125q1.078125 2.25 3.828125 3.75q2.75 1.5 7.921875 1.5l0 3.0l-39.078125 0l0 -3.0q5.828125 0 8.65625 -1.828125q2.09375 -1.34375 2.921875 -4.25q0.421875 -1.421875 0.421875 -8.09375l0 -29.578125q0 -13.328125 -0.546875 -15.859375q-0.546875 -2.546875 -2.0 -3.71875q-1.453125 -1.171875 -3.625 -1.171875q-2.578125 0 -5.828125 1.25l-0.84375 -3.0l23.09375 -9.328125l3.5 0zm57.079865 -39.921875l0 75.921875l19.40625 -17.671875q6.171875 -5.65625 7.171875 -7.15625q0.65625 -1.0 0.65625 -2.0q0 -1.671875 -1.375 -2.875q-1.375 -1.21875 -4.53125 -1.375l0 -2.671875l33.15625 0l0 2.671875q-6.828125 0.15625 -11.375 2.078125q-4.53125 1.921875 -9.953125 6.828125l-19.578125 18.09375l19.578125 24.734375q8.171875 10.25 11.0 13.0q4.0 3.921875 7.0 5.09375q2.078125 0.828125 7.25 0.828125l0 3.0l-37.078125 0l0 -3.0q3.15625 -0.078125 4.28125 -0.953125q1.125 -0.875 1.125 -2.46875q0 -1.90625 -3.328125 -6.15625l-23.40625 -29.921875l0 25.328125q0 7.421875 1.03125 9.765625q1.046875 2.328125 2.953125 3.328125q1.921875 1.0 8.34375 1.078125l0 3.0l-38.828125 0l0 -3.0q5.828125 0 8.75 -1.421875q1.75 -0.90625 2.65625 -2.828125q1.25 -2.75 1.25 -9.5l0 -69.5q0 -13.250002 -0.578125 -16.203127q-0.578125 -2.953124 -1.921875 -4.078124q-1.328125 -1.125 -3.5 -1.125q-1.75 0 -5.25 1.40625l-1.40625 -2.90625l22.65625 -9.34375l3.84375 0zm85.828125 51.171875q3.65625 0 6.203125 2.546875q2.546875 2.53125 2.546875 6.203125q0 3.578125 -2.59375 6.171875q-2.578125 2.578125 -6.15625 2.578125q-3.59375 0 -6.171875 -2.578125q-2.578125 -2.59375 -2.578125 -6.171875q0 -3.671875 2.53125 -6.203125q2.546875 -2.546875 6.21875 -2.546875zm54.15799 39.5q-7.0 -3.421875 -10.75 -9.546875q-3.75 -6.125 -3.75 -13.53125q0 -11.34375 8.53125 -19.5q8.546875 -8.171875 21.890625 -8.171875q10.90625 0 18.90625 5.328125l16.171875 0q3.578125 0 4.15625 0.21875q0.59375 0.203125 0.84375 0.703125q0.5 0.75 0.5 2.671875q0 2.15625 -0.421875 3.0q-0.25 0.40625 -0.875 0.65625q-0.625 0.25 -4.203125 0.25l-9.921875 0q4.671875 6.0 4.671875 15.34375q0 10.65625 -8.171875 18.25q-8.171875 7.578125 -21.90625 7.578125q-5.671875 0 -11.59375 -1.671875q-3.65625 3.171875 -4.953125 5.546875q-1.296875 2.375 -1.296875 4.03125q0 1.421875 1.375 2.765625q1.375 1.328125 5.375 1.90625q2.34375 0.328125 11.671875 0.578125q17.15625 0.421875 22.25 1.171875q7.75 1.078125 12.375 5.75q4.625 4.671875 4.625 11.5q0 9.421875 -8.84375 17.671875q-13.0 12.15625 -33.90625 12.15625q-16.078125 0 -27.171875 -7.25q-6.25 -4.15625 -6.25 -8.65625q0 -2.0 0.921875 -4.0q1.421875 -3.09375 5.828125 -8.59375q0.59375 -0.75 8.5 -9.0q-4.328125 -2.578125 -6.125 -4.609375q-1.78125 -2.046875 -1.78125 -4.640625q0 -2.90625 2.375 -6.828125q2.375 -3.921875 10.953125 -11.078125zm14.5 -46.75q-6.171875 0 -10.34375 4.921875q-4.15625 4.90625 -4.15625 15.078125q0 13.15625 5.671875 20.40625q4.328125 5.5 11.0 5.5q6.328125 0 10.40625 -4.75q4.078125 -4.75 4.078125 -14.90625q0 -13.25 -5.75 -20.75q-4.25 -5.5 -10.90625 -5.5zm-15.328125 74.578125q-3.921875 4.25 -5.921875 7.90625q-2.0 3.671875 -2.0 6.765625q0 4.0 4.828125 7.0q8.34375 5.15625 24.078125 5.15625q15.0 0 22.125 -5.296875q7.125 -5.28125 7.125 -11.28125q0 -4.328125 -4.25 -6.171875q-4.328125 -1.828125 -17.15625 -2.15625q-18.75 -0.5 -28.828125 -1.921875zm88.078094 -78.578125l0 17.171875q9.578125 -17.171875 19.65625 -17.171875q4.578125 0 7.578125 2.796875q3.0 2.78125 3.0 6.453125q0 3.25 -2.171875 5.5q-2.15625 2.25 -5.15625 2.25q-2.921875 0 -6.546875 -2.875q-3.609375 -2.875 -5.359375 -2.875q-1.5 0 -3.25 1.671875q-3.75 3.40625 -7.75 11.25l0 36.578125q0 6.328125 1.578125 9.578125q1.078125 2.25 3.828125 3.75q2.75 1.5 7.921875 1.5l0 3.0l-39.078094 0l0 -3.0q5.828125 0 8.6562195 -1.828125q2.09375 -1.34375 2.921875 -4.25q0.421875 -1.421875 0.421875 -8.09375l0 -29.578125q0 -13.328125 -0.546875 -15.859375q-0.546875 -2.546875 -2.0 -3.71875q-1.4530945 -1.171875 -3.6249695 -1.171875q-2.578125 0 -5.828125 1.25l-0.84375 -3.0l23.09372 -9.328125l3.5 0zm53.90802 -39.921875q3.5 0 5.953125 2.46875q2.46875 2.4531252 2.46875 5.953125q0 3.5 -2.46875 6.0q-2.453125 2.499999 -5.953125 2.499999q-3.5 0 -6.0 -2.499999q-2.5 -2.5 -2.5 -6.0q0 -3.5 2.453125 -5.953125q2.46875 -2.46875 6.046875 -2.46875zm6.921875 39.921875l0 61.328125q0 7.171875 1.03125 9.546875q1.046875 2.375 3.078125 3.546875q2.046875 1.15625 7.46875 1.15625l0 3.0l-37.078125 0l0 -3.0q5.578125 0 7.484375 -1.078125q1.921875 -1.09375 3.046875 -3.59375q1.125 -2.5 1.125 -9.578125l0 -29.40625q0 -12.421875 -0.75 -16.09375q-0.578125 -2.65625 -1.828125 -3.703125q-1.25 -1.046875 -3.421875 -1.046875q-2.328125 0 -5.65625 1.25l-1.171875 -3.0l23.0 -9.328125l3.671875 0zm43.320007 16.171875q13.421875 -16.171875 25.578125 -16.171875q6.25 0 10.75 3.125q4.5 3.125 7.171875 10.296875q1.828125 5.0 1.828125 15.328125l0 32.578125q0 7.25 1.171875 9.828125q0.921875 2.09375 2.953125 3.265625q2.046875 1.15625 7.546875 1.15625l0 3.0l-37.75 0l0 -3.0l1.578125 0q5.34375 0 7.46875 -1.625q2.125 -1.625 2.953125 -4.796875q0.328125 -1.25 0.328125 -7.828125l0 -31.25q0 -10.40625 -2.703125 -15.109375q-2.703125 -4.71875 -9.125 -4.71875q-9.90625 0 -19.75 10.828125l0 40.25q0 7.75 0.921875 9.578125q1.171875 2.421875 3.203125 3.546875q2.046875 1.125 8.296875 1.125l0 3.0l-37.75 0l0 -3.0l1.671875 0q5.828125 0 7.859375 -2.953125q2.046875 -2.96875 2.046875 -11.296875l0 -28.328125q0 -13.75 -0.625 -16.75q-0.625 -3.0 -1.921875 -4.078125q-1.28125 -1.09375 -3.453125 -1.09375q-2.328125 0 -5.578125 1.25l-1.25 -3.0l23.0 -9.328125l3.578125 0l0 16.171875zm117.0 53.828125q-5.59375 5.828125 -10.921875 8.375q-5.328125 2.53125 -11.5 2.53125q-12.5 0 -21.828125 -10.453125q-9.328125 -10.453125 -9.328125 -26.875q0 -16.40625 10.328125 -30.03125q10.328125 -13.625 26.578125 -13.625q10.078125 0 16.671875 6.40625l0 -14.078125q0 -13.078127 -0.625 -16.078127q-0.625 -2.999999 -1.96875 -4.078124q-1.328125 -1.09375 -3.328125 -1.09375q-2.171875 0 -5.75 1.328125l-1.078125 -2.90625l22.75 -9.34375l3.75 0l0 88.25q0 13.421875 0.625 16.375q0.625 2.953125 2.0 4.125q1.375 1.171875 3.203125 1.171875q2.25 0 6.0 -1.421875l0.921875 2.921875l-22.671875 9.40625l-3.828125 0l0 -10.90625zm0 -5.84375l0 -39.328125q-0.5 -5.65625 -3.0 -10.328125q-2.5 -4.671875 -6.625 -7.046875q-4.125 -2.375 -8.046875 -2.375q-7.328125 0 -13.078125 6.59375q-7.578125 8.65625 -7.578125 25.328125q0 16.828125 7.328125 25.796875q7.328125 8.953125 16.328125 8.953125q7.578125 0 14.671875 -7.59375zm27.078125 -61.90625l35.578125 0l0 3.078125l-1.75 0q-3.75 0 -5.625 1.625q-1.875 1.625 -1.875 4.046875q0 3.25 2.75 9.0l18.578125 38.5l17.09375 -42.171875q1.40625 -3.40625 1.40625 -6.75q0 -1.5 -0.578125 -2.25q-0.671875 -0.90625 -2.09375 -1.453125q-1.40625 -0.546875 -4.984375 -0.546875l0 -3.078125l24.828125 0l0 3.078125q-3.078125 0.34375 -4.75 1.34375q-1.671875 1.0 -3.671875 3.75q-0.75 1.15625 -2.828125 6.40625l-31.078125 76.171875q-4.5 11.078125 -11.796875 16.734375q-7.28125 5.671875 -14.03125 5.671875q-4.921875 0 -8.09375 -2.828125q-3.15625 -2.828125 -3.15625 -6.5q0 -3.5 2.28125 -5.625q2.296875 -2.125 6.296875 -2.125q2.75 0 7.5 1.828125q3.328125 1.25 4.171875 1.25q2.5 0 5.453125 -2.578125q2.953125 -2.578125 5.953125 -10.0l5.421875 -13.25l-27.421875 -57.578125q-1.25 -2.578125 -4.0 -6.421875q-2.078125 -2.90625 -3.40625 -3.90625q-1.921875 -1.34375 -6.171875 -2.34375l0 -3.078125z" fill-rule="nonzero"/></g></svg>