<svg version="1.1" viewBox="0.0 0.0 874.0 116.501312335958" fill="none" stroke="none" stroke-linecap="square" stroke-miterlimit="10" xmlns:xlink="http://www.w3.org/1999/xlink" xmlns="http://www.w3.org/2000/svg"><clipPath id="p.0"><path d="m0 0l874.0 0l0 116.50131l-874.0 0l0 -116.50131z" clip-rule="nonzero"/></clipPath><g clip-path="url(#p.0)"><path fill="#000000" fill-opacity="0.0" d="m0 0l874.0 0l0 116.50131l-874.0 0z" fill-rule="evenodd"/><path fill="#000000" fill-opacity="0.0" d="m-14.501312 0l966.01575 0l0 104.7874l-966.01575 0z" fill-rule="evenodd"/><path fill="#121212" d="m49.498688 33.65557l1.25 26.578125l-2.84375 0q-5.078125 -11.828125 -10.53125 -16.15625q-5.453125 -4.34375 -10.875 -4.34375q-3.421875 0 -5.84375 2.296875q-2.40625 2.296875 -2.40625 5.296875q0 2.25 1.671875 4.328125q2.65625 3.421875 14.90625 11.71875q12.25 8.28125 16.125 14.078125q3.875 5.78125 3.875 12.953125q0 6.5 -3.25 12.75q-3.25 6.25 -9.171875 9.578125q-5.90625 3.328125 -13.078125 3.328125q-5.578125 0 -14.90625 -3.5q-2.5 -0.90625 -3.421875 -0.90625q-2.75 0 -4.578125 4.15625l-2.75 0l-1.34375 -28.0l2.84375 0q3.75 11.0 10.28125 16.5q6.546875 5.5 12.375 5.5q4.0 0 6.546875 -2.453125q2.546875 -2.453125 2.546875 -5.953125q0 -4.0 -2.5 -6.921875q-2.5 -2.921875 -11.171875 -8.828125q-12.75 -8.84375 -16.5 -13.5q-5.5 -6.828125 -5.5 -15.078125q0 -9.0 6.203125 -16.296875q6.21875 -7.296875 17.96875 -7.296875q6.328125 0 12.234375 3.09375q2.25 1.25 3.671875 1.25q1.5 0 2.40625 -0.625q0.921875 -0.625 2.921875 -3.546875l2.84375 0zm94.41261 82.40625l-21.34375 -57.15625l-20.90625 57.15625l-4.328125 0l-20.75 -56.484375q-4.671875 -12.921875 -7.921875 -16.84375q-2.078125 -2.65625 -6.328125 -3.828125l0 -3.078125l39.328125 0l0 3.078125q-4.0 0 -5.5 1.171875q-1.5 1.15625 -1.5 2.65625q0 1.421875 2.671875 8.5l11.40625 30.421875l11.0 -30.421875l-0.828125 -2.0q-2.5 -6.25 -4.375 -7.953125q-1.875 -1.703125 -5.796875 -2.375l0 -3.078125l39.921875 0l0 3.078125q-4.671875 0.25 -5.921875 1.296875q-1.25 1.03125 -1.25 2.953125q0 1.828125 2.421875 8.078125l11.0 30.421875l10.0 -28.0q2.15625 -6.0 2.15625 -8.171875q0 -3.25 -1.578125 -4.75q-1.578125 -1.5 -6.171875 -1.828125l0 -3.078125l23.09375 0l0 3.078125q-3.84375 0.5 -6.09375 2.71875q-2.25 2.203125 -5.828125 12.53125l-21.828125 61.90625l-4.75 0zm88.99248 -13.828125q-14.25 12.578125 -25.578125 12.578125q-6.671875 0 -11.09375 -4.375q-4.40625 -4.375 -4.40625 -10.953125q0 -8.921875 7.65625 -16.046875q7.671875 -7.125 33.421875 -18.953125l0 -7.828125q0 -8.828125 -0.96875 -11.125q-0.953125 -2.296875 -3.625 -4.0q-2.65625 -1.703125 -5.984375 -1.703125q-5.421875 0 -8.921875 2.40625q-2.171875 1.5 -2.171875 3.5q0 1.75 2.34375 4.34375q3.15625 3.578125 3.15625 6.90625q0 4.09375 -3.046875 6.96875q-3.03125 2.875 -7.953125 2.875q-5.25 0 -8.796875 -3.171875q-3.53125 -3.171875 -3.53125 -7.421875q0 -6.0 4.75 -11.453125q4.75 -5.453125 13.25 -8.375q8.5 -2.921875 17.65625 -2.921875q11.09375 0 17.546875 4.71875q6.453125 4.703125 8.375 10.203125q1.171875 3.5 1.171875 16.078125l0 30.25q0 5.328125 0.40625 6.703125q0.421875 1.375 1.25 2.046875q0.84375 0.671875 1.921875 0.671875q2.171875 0 4.421875 -3.09375l2.5 2.0q-4.171875 6.171875 -8.640625 8.96875q-4.453125 2.78125 -10.109375 2.78125q-6.671875 0 -10.421875 -3.125q-3.75 -3.125 -4.578125 -9.453125zm0 -6.078125l0 -26.078125q-10.078125 5.90625 -15.0 12.65625q-3.25 4.5 -3.25 9.078125q0 3.84375 2.75 6.75q2.078125 2.25 5.828125 2.25q4.171875 0 9.671875 -4.65625zm73.25 -88.828125l0 28.5l18.484375 0l0 8.25l-18.484375 0l0 48.078125q0 6.75 0.625 8.703125q0.625 1.953125 2.203125 3.171875q1.578125 1.203125 2.921875 1.203125q5.40625 0 10.234375 -8.25l2.5 1.828125q-6.75 16.0 -21.90625 16.0q-7.421875 0 -12.546875 -4.125q-5.125 -4.125 -6.53125 -9.203125q-0.84375 -2.828125 -0.84375 -15.328125l0 -42.078125l-10.15625 0l0 -2.921875q10.5 -7.421875 17.875 -15.578125q7.375 -8.171875 12.875 -18.25l2.75 0zm89.486115 86.328125l2.578125 2.0q-5.5 10.328125 -13.703125 15.375q-8.203125 5.03125 -17.453125 5.03125q-15.578125 0 -24.921875 -11.75q-9.328125 -11.75 -9.328125 -28.25q0 -15.90625 8.5 -27.984375q10.25 -14.59375 28.25 -14.59375q12.078125 0 19.203125 6.09375q7.125 6.078125 7.125 13.578125q0 4.75 -2.875 7.59375q-2.875 2.828125 -7.546875 2.828125q-4.90625 0 -8.125 -3.25q-3.203125 -3.25 -3.953125 -11.59375q-0.5 -5.25 -2.421875 -7.328125q-1.90625 -2.078125 -4.484375 -2.078125q-4.0 0 -6.84375 4.25q-4.328125 6.40625 -4.328125 19.65625q0 11.0 3.5 21.046875q3.5 10.03125 9.578125 14.953125q4.578125 3.578125 10.828125 3.578125q4.09375 0 7.75 -1.90625q3.671875 -1.921875 8.671875 -7.25zm43.99539 -92.921875l0 45.09375q6.421875 -6.75 11.75 -9.546875q5.328125 -2.796875 11.078125 -2.796875q7.34375 0 12.546875 4.171875q5.203125 4.171875 6.90625 9.796875q1.71875 5.625 1.71875 18.953125l0 30.40625q0 8.921875 1.65625 11.140625q1.671875 2.203125 6.765625 2.78125l0 3.0l-39.5 0l0 -3.0q4.15625 -0.578125 6.25 -3.328125q1.5 -2.171875 1.5 -10.59375l0 -34.734375q0 -9.671875 -0.75 -12.125q-0.75 -2.46875 -2.546875 -3.84375q-1.796875 -1.375 -4.046875 -1.375q-3.328125 0 -6.5 2.296875q-3.15625 2.296875 -6.828125 8.046875l0 41.734375q0 8.34375 1.25 10.421875q1.59375 2.828125 6.5 3.5l0 3.0l-39.5 0l0 -3.0q4.921875 -0.5 7.0 -3.171875q1.421875 -1.828125 1.421875 -10.75l0 -79.15625q0 -8.828125 -1.625 -11.0q-1.625 -2.171875 -6.796875 -2.828125l0 -3.09375l31.75 0zm140.33273 115.328125l-21.34375 -57.15625l-20.90625 57.15625l-4.328125 0l-20.75 -56.484375q-4.6718445 -12.921875 -7.9218445 -16.84375q-2.078125 -2.65625 -6.328125 -3.828125l0 -3.078125l39.328094 0l0 3.078125q-4.0 0 -5.5 1.171875q-1.5 1.15625 -1.5 2.65625q0 1.421875 2.671875 8.5l11.40625 30.421875l11.0 -30.421875l-0.828125 -2.0q-2.5 -6.25 -4.375 -7.953125q-1.875 -1.703125 -5.796875 -2.375l0 -3.078125l39.921875 0l0 3.078125q-4.671875 0.25 -5.921875 1.296875q-1.25 1.03125 -1.25 2.953125q0 1.828125 2.421875 8.078125l11.0 30.421875l10.0 -28.0q2.15625 -6.0 2.15625 -8.171875q0 -3.25 -1.578125 -4.75q-1.578125 -1.5 -6.171875 -1.828125l0 -3.078125l23.09375 0l0 3.078125q-3.84375 0.5 -6.09375 2.71875q-2.25 2.203125 -5.828125 12.53125l-21.828125 61.90625l-4.75 0zm82.74249 -82.578125q10.15625 0 18.90625 5.25q8.75 5.25 13.296875 14.921875q4.546875 9.671875 4.546875 21.15625q0 16.59375 -8.421875 27.75q-10.171875 13.5 -28.078125 13.5q-17.578125 0 -27.078125 -12.328125q-9.5 -12.328125 -9.5 -28.578125q0 -16.75 9.703125 -29.203125q9.703125 -12.46875 26.625 -12.46875zm0.328125 5.921875q-4.25 0 -7.296875 3.21875q-3.03125 3.203125 -4.0 12.65625q-0.953125 9.453125 -0.953125 26.28125q0 8.921875 1.171875 16.671875q0.921875 5.921875 3.921875 9.0q3.0 3.078125 6.828125 3.078125q3.75 0 6.25 -2.078125q3.25 -2.828125 4.328125 -7.921875q1.671875 -7.90625 1.671875 -31.984375q0 -14.171875 -1.59375 -19.453125q-1.578125 -5.296875 -4.65625 -7.71875q-2.171875 -1.75 -5.671875 -1.75zm80.578125 -3.578125l0 17.65625q7.75 -12.078125 13.578125 -16.03125q5.84375 -3.96875 11.25 -3.96875q4.671875 0 7.453125 2.875q2.796875 2.875 2.796875 8.125q0 5.59375 -2.703125 8.671875q-2.703125 3.078125 -6.546875 3.078125q-4.40625 0 -7.65625 -2.828125q-3.25 -2.828125 -3.84375 -3.171875q-0.828125 -0.5 -1.90625 -0.5q-2.421875 0 -4.59375 1.84375q-3.40625 2.828125 -5.15625 8.078125q-2.671875 8.078125 -2.671875 17.828125l0 17.921875l0.09375 4.65625q0 4.75 0.578125 6.09375q1.0 2.25 2.953125 3.296875q1.953125 1.03125 6.625 1.28125l0 3.0l-42.078125 0l0 -3.0q5.078125 -0.421875 6.875 -2.796875q1.796875 -2.375 1.796875 -12.53125l0 -43.078125q0 -6.671875 -0.671875 -8.5q-0.828125 -2.34375 -2.421875 -3.421875q-1.578125 -1.078125 -5.578125 -1.5l0 -3.078125l31.828125 0zm119.16724 -35.09375l0 89.671875q0 9.078125 0.5 10.75q0.65625 2.75 2.53125 4.078125q1.875 1.328125 6.546875 1.671875l0 2.75l-32.921875 6.40625l0 -12.328125q-5.90625 7.171875 -10.53125 9.75q-4.625 2.578125 -10.453125 2.578125q-14.921875 0 -23.59375 -13.328125q-7.0 -10.828125 -7.0 -26.578125q0 -12.578125 4.328125 -22.53125q4.34375 -9.96875 11.875 -15.046875q7.546875 -5.09375 16.21875 -5.09375q5.578125 0 9.90625 2.171875q4.34375 2.171875 9.25 7.578125l0 -23.5q0 -8.90625 -0.75 -10.75q-1.0 -2.40625 -3.0 -3.578125q-2.0 -1.171875 -7.5 -1.171875l0 -3.5l34.59375 0zm-23.34375 52.84375q-6.15625 -11.84375 -15.078125 -11.84375q-3.078125 0 -5.078125 1.671875q-3.078125 2.578125 -5.046875 9.078125q-1.953125 6.5 -1.953125 19.921875q0 14.75 2.15625 21.828125q2.171875 7.078125 5.921875 10.25q1.921875 1.578125 5.25 1.578125q7.328125 0 13.828125 -11.5l0 -40.984375z" fill-rule="nonzero"/></g></svg>