<svg version="1.1" viewBox="0.0 0.0 777.509186351706 128.5511811023622" fill="none" stroke="none" stroke-linecap="square" stroke-miterlimit="10" xmlns:xlink="http://www.w3.org/1999/xlink" xmlns="http://www.w3.org/2000/svg"><clipPath id="p.0"><path d="m0 0l777.5092 0l0 128.55118l-777.5092 0l0 -128.55118z" clip-rule="nonzero"/></clipPath><g clip-path="url(#p.0)"><path fill="#000000" fill-opacity="0.0" d="m0 0l777.5092 0l0 128.55118l-777.5092 0z" fill-rule="evenodd"/><path fill="#434343" d="m741.195 78.09007c-1.0 -6.7502136 6.7510986 -46.50131 9.501282 -58.50131c2.7502441 -12.0 3.833374 -12.332022 7.0 -13.498688c3.166687 -1.166667 12.166687 -2.5013125 12.0 6.4986873c-0.16662598 9.000001 -8.249756 36.584427 -13.0 47.501312c-4.750183 10.916882 -14.501282 24.750217 -15.501282 17.999996z" fill-rule="evenodd"/><path stroke="#434343" stroke-width="1.0" stroke-linejoin="round" stroke-linecap="butt" d="m741.195 78.09007c-1.0 -6.7502136 6.7510986 -46.50131 9.501282 -58.50131c2.7502441 -12.0 3.833374 -12.332022 7.0 -13.498688c3.166687 -1.166667 12.166687 -2.5013125 12.0 6.4986873c-0.16662598 9.000001 -8.249756 36.584427 -13.0 47.501312c-4.750183 10.916882 -14.501282 24.750217 -15.501282 17.999996z" fill-rule="evenodd"/><path fill="#434343" d="m400.51788 43.769253c-1.666687 -3.5835495 3.5844116 -22.167976 5.5013123 -28.50131c1.9168701 -6.333334 2.91687 -8.58224 6.0 -9.498688c3.0830994 -0.9164481 11.832001 -1.166667 12.498688 4.0c0.6666565 5.166667 -4.4986877 21.333334 -8.498688 26.999998c-4.0 5.666668 -13.834656 10.583553 -15.501312 7.0z" fill-rule="evenodd"/><path stroke="#434343" stroke-width="1.0" stroke-linejoin="round" stroke-linecap="butt" d="m400.51788 43.769253c-1.666687 -3.5835495 3.5844116 -22.167976 5.5013123 -28.50131c1.9168701 -6.333334 2.91687 -8.58224 6.0 -9.498688c3.0830994 -0.9164481 11.832001 -1.166667 12.498688 4.0c0.6666565 5.166667 -4.4986877 21.333334 -8.498688 26.999998c-4.0 5.666668 -13.834656 10.583553 -15.501312 7.0z" fill-rule="evenodd"/><path fill="#434343" d="m286.49875 48.503166c-2.0 -2.166668 -1.0262451 -20.393702 -0.03149414 -26.472443c0.994751 -6.078739 3.0 -8.666666 6.0 -9.999999c3.0 -1.333334 11.0 -1.833334 12.0 2.0c1.0 3.833333 -3.005249 15.254592 -6.0 21.0c-2.994751 5.745407 -9.968506 15.639107 -11.968506 13.472443z" fill-rule="evenodd"/><path stroke="#434343" stroke-width="1.0" stroke-linejoin="round" stroke-linecap="butt" d="m286.49875 48.503166c-2.0 -2.166668 -1.0262451 -20.393702 -0.03149414 -26.472443c0.994751 -6.078739 3.0 -8.666666 6.0 -9.999999c3.0 -1.333334 11.0 -1.833334 12.0 2.0c1.0 3.833333 -3.005249 15.254592 -6.0 21.0c-2.994751 5.745407 -9.968506 15.639107 -11.968506 13.472443z" fill-rule="evenodd"/><path fill="#434343" d="m17.194225 25.498688l746.9921 0l0 95.52756l-746.9921 0z" fill-rule="evenodd"/><path stroke="#434343" stroke-width="1.0" stroke-linejoin="round" stroke-linecap="butt" d="m17.194225 25.498688l746.9921 0l0 95.52756l-746.9921 0z" fill-rule="evenodd"/><path fill="#000000" fill-opacity="0.0" d="m0 45.55643l832.9449 0l0 38.204723l-832.9449 0z" fill-rule="evenodd"/><path fill="#f3f3f3" d="m69.203125 65.74191q3.203125 0 6.53125 1.46875q3.34375 1.46875 6.09375 3.640625l-0.140625 0q2.8125 2.4375 3.78125 6.28125q0.984375 3.84375 -0.15625 9.21875l-0.8125 3.828125q-2.234375 10.5 -10.21875 15.5q-3.875 2.5625 -7.578125 3.71875q-3.6875 1.140625 -7.015625 1.140625l-21.765625 0q-3.328125 0 -6.546875 -1.140625q-3.203125 -1.15625 -5.984375 -3.71875q-5.875 -4.875 -3.609375 -15.5l0.328125 -1.53125q1.171875 -5.5 8.171875 -5.375q7.171875 0 6.03125 5.375l-0.296875 1.40625q-0.65625 3.078125 0.6875 5.765625q1.359375 2.6875 6.21875 2.6875l16.890625 0q4.875 0 7.359375 -2.6875q2.484375 -2.6875 3.140625 -5.765625l0.75 -3.578125q0.359375 -1.671875 0.234375 -3.203125q-0.109375 -1.53125 -0.875 -2.75q-0.765625 -1.21875 -2.265625 -1.984375q-1.5 -0.765625 -3.9375 -0.765625l-18.6875 0q-6.515625 0 -12.71875 -4.609375q-5.84375 -4.359375 -3.59375 -14.984371l0.921875 -4.34375q1.09375 -5.125 3.703125 -9.015625q2.625 -3.90625 6.46875 -6.34375l-0.125 0q3.671875 -2.171875 7.546875 -3.578125q3.875 -1.421875 7.203125 -1.421875l20.484375 0q3.328125 0 6.546875 1.421875q3.234375 1.40625 6.09375 3.578125l-0.140625 0q2.8125 2.4375 3.78125 6.34375q0.96875 3.890625 -0.125 9.015625l-0.234375 1.15625q-0.578125 2.6875 -2.640625 3.90625q-2.046875 1.203125 -5.53125 1.34375q-7.046875 0.125 -5.90625 -5.25l0.21875 -1.03125q0.671875 -3.203125 -0.75 -5.828125q-1.421875 -2.625 -6.15625 -2.625l-15.875 0q-4.734375 0 -7.28125 2.625q-2.546875 2.625 -3.21875 5.828125l-0.65625 3.078125q-0.703125 3.328125 0.703125 6.015625q1.40625 2.6874962 6.140625 2.6874962l18.8125 0zm55.32939 40.828125l0.15625 -0.125q-1.515625 2.9375 -4.28125 3.84375q-2.75 0.890625 -5.3125 0.890625q-2.421875 0 -4.859375 -0.890625q-2.421875 -0.90625 -2.5625 -3.84375l0.09375 0.125l-2.671875 -66.296875q-0.40625 -5.375 6.5 -7.171875q6.640625 -1.671875 7.140625 4.34375l0.03125 -0.125l1.5 41.73437l3.453125 0l19.25 -41.73437q1.203125 -2.6875 3.609375 -3.515625q2.421875 -0.828125 4.34375 -0.828125q2.171875 0 4.078125 0.96875q1.921875 0.953125 2.171875 3.375q0.171875 4.609375 0.28125 8.578125q0.109375 3.96875 0.21875 7.6875q0.109375 3.703125 0.1875 7.296875q0.078125 3.5781212 0.28125 7.421871l0.5 10.875l3.46875 0q4.75 -10.375 9.609375 -20.921871q4.875 -10.5625 9.640625 -20.9375l-0.15625 0.125q3.078125 -6.015625 8.984375 -4.34375q6.21875 1.53125 3.484375 7.171875l-30.734375 66.296875l0.15625 -0.125q-1.390625 2.9375 -4.21875 3.84375q-2.8125 0.890625 -5.375 0.890625q-2.4375 0 -4.796875 -0.890625q-2.359375 -0.90625 -2.640625 -3.84375l0.09375 0.125l-1.4375 -35.96875l-3.453125 0l-16.734375 35.96875zm83.5134 3.96875q-3.96875 0 -7.328125 -1.078125q-3.34375 -1.09375 -6.25 -3.140625l-0.015625 0.125q-5.421875 -3.96875 -3.171875 -14.59375l1.328125 -6.265625q1.125 -5.25 3.796875 -9.15625q2.6875 -3.90625 6.5 -6.203125l-0.125 0q3.671875 -2.1875 7.484375 -3.265625q3.8125 -1.09375 7.140625 -1.09375l28.296875 0l2.53125 -11.906246q0.671875 -3.203125 -0.75 -5.828125q-1.421875 -2.625 -6.15625 -2.625l-14.984375 0q-4.859375 0 -7.234375 2.375q-2.359375 2.375 -3.03125 5.5625l-0.21875 1.03125q-1.421875 6.65625 -8.578125 6.65625q-7.171875 0 -5.75 -6.65625l0.234375 -1.15625q1.125 -5.25 3.734375 -8.828125q2.625 -3.578125 6.328125 -6.015625l-0.125 0q3.796875 -2.171875 7.734375 -3.578125q3.953125 -1.421875 7.28125 -1.421875l19.453125 0q3.203125 0 6.546875 1.421875q3.3593597 1.40625 6.0937347 3.578125l-0.125 0q2.8125 2.4375 3.765625 6.34375q0.96875 3.890625 -0.125 9.015625l-10.906235 51.32812q-1.296875 6.140625 -8.34375 6.140625q-1.40625 0 -2.59375 -0.125q-1.1875 -0.125 -2.03125 -0.703125q-0.828125 -0.578125 -1.1875 -1.65625q-0.34375 -1.09375 0.046875 -2.890625l5.828125 -28.03125l-25.859375 0q-2.8125 0 -4.484375 0.640625q-1.671875 0.640625 -2.875 2.046875q-1.484375 2.171875 -2.1875 3.390625q-0.703125 1.21875 -1.03125 2.75l-1.0625 5.0q-0.703125 3.328125 0.90625 5.0625q1.625 1.71875 6.484375 1.71875l14.34375 0q4.734375 0 3.453125 6.015625q-0.546875 2.5625 -2.078125 4.296875q-1.515625 1.71875 -3.9375 1.71875l-16.765625 0zm89.34563 -65.03125l-9.90625 46.593746q-0.703125 3.328125 0.3125 5.125q1.03125 1.796875 5.640625 1.796875l3.328125 0q4.984375 0 3.484375 5.890625q-1.28125 6.015625 -6.015625 6.015625l-4.21875 0q-4.109375 0 -7.46875 -1.09375q-3.34375 -1.09375 -6.234375 -3.140625l-0.015625 0.125q-5.421875 -4.09375 -3.1875 -14.578125l9.9375 -46.73437l-4.984375 0q-4.609375 0 -3.609375 -6.015625q1.28125 -6.015625 6.15625 -6.015625l4.984375 0l2.921875 -13.6875q1.296875 -6.140625 8.59375 -6.140625q7.046875 0 5.75 6.140625l-2.921875 13.6875l10.625 0q4.984375 0 3.453125 6.015625q-1.265625 6.015625 -6.0 6.015625l-10.625 0zm78.6889 44.67187q-2.234375 10.5 -10.203125 15.5q-7.828125 4.859375 -14.609375 4.859375l-21.5 0q-6.78125 0 -12.15625 -4.859375q-2.515625 -2.5625 -3.359375 -6.46875q-0.828125 -3.90625 0.265625 -9.03125l7.75 -36.468746q2.203125 -10.375 9.65625 -15.359375q3.6875 -2.3125 7.359375 -3.65625q3.6875 -1.34375 6.890625 -1.34375l21.5 0q3.078125 0 6.53125 1.21875q3.453125 1.21875 6.21875 3.265625q2.59375 2.171875 3.640625 6.015625q1.046875 3.84375 -0.078125 9.09375l-1.34375 6.390625q-1.3125 6.140621 -8.359375 6.140621q-7.03125 0 -5.71875 -6.140621l1.15625 -5.5q0.6875 -3.203125 -0.75 -5.828125q-1.421875 -2.625 -6.15625 -2.625l-16.0 0q-4.734375 0 -7.28125 2.625q-2.53125 2.625 -3.21875 5.828125l-7.6875 36.218746q-0.65625 3.078125 0.75 5.765625q1.421875 2.6875 6.15625 2.6875l16.0 0q4.734375 0 7.28125 -2.6875q2.5625 -2.6875 3.21875 -5.765625l1.25 -5.890625q1.28125 -6.015625 8.3125 -6.015625q7.046875 0 5.765625 6.015625l-1.28125 6.015625zm26.896118 14.984375q-1.296875 6.140625 -8.34375 6.140625q-7.03125 0 -5.734375 -6.140625l19.3125 -90.875q1.3125 -6.15625 8.34375 -6.15625q7.046875 0 5.734375 6.15625l-4.078125 19.1875l27.0 0q6.53125 0 12.546875 4.875q5.875 4.859375 3.640625 15.359375l-10.9375 51.45312q-1.296875 6.140625 -8.34375 6.140625q-7.03125 0 -5.734375 -6.140625l10.703125 -50.312496q0.703125 -3.328125 -0.703125 -6.390625l0.109375 0.125q-1.015625 -3.078125 -6.125 -3.078125l-24.703125 0l-12.6875 59.656246zm90.96402 1.40625l0.15625 -0.125q-1.515625 2.9375 -4.28125 3.84375q-2.75 0.890625 -5.3125 0.890625q-2.421875 0 -4.859375 -0.890625q-2.421875 -0.90625 -2.5625 -3.84375l0.09375 0.125l-2.671875 -66.296875q-0.40625 -5.375 6.5 -7.171875q6.640625 -1.671875 7.140625 4.34375l0.03125 -0.125l1.5 41.73437l3.453125 0l19.24997 -41.73437q1.203125 -2.6875 3.609375 -3.515625q2.421875 -0.828125 4.34375 -0.828125q2.171875 0 4.078125 0.96875q1.921875 0.953125 2.171875 3.375q0.171875 4.609375 0.28125 8.578125q0.109375 3.96875 0.21875 7.6875q0.109375 3.703125 0.1875 7.296875q0.078125 3.5781212 0.28125 7.421871l0.5 10.875l3.46875 0q4.75 -10.375 9.609375 -20.921871q4.875 -10.5625 9.640625 -20.9375l-0.15625 0.125q3.078125 -6.015625 8.984375 -4.34375q6.21875 1.53125 3.484375 7.171875l-30.734375 66.296875l0.15625 -0.125q-1.390625 2.9375 -4.21875 3.84375q-2.8125 0.890625 -5.375 0.890625q-2.4375 0 -4.796875 -0.890625q-2.359375 -0.90625 -2.640625 -3.84375l0.09375 0.125l-1.4375 -35.96875l-3.4530945 0l-16.734375 35.96875zm121.5134 -73.09375q3.328125 0 6.546875 1.421875q3.234375 1.40625 6.09375 3.578125l-0.140625 0q2.8125 2.4375 3.78125 6.34375q0.96875 3.890625 -0.125 9.015625l-7.71875 36.343746q-2.234375 10.5 -10.21875 15.5q-7.8125 4.859375 -14.59375 4.859375l-20.484375 0q-3.328125 0 -6.546875 -1.140625q-3.203125 -1.15625 -5.984375 -3.71875q-5.875 -4.875 -3.609375 -15.5l7.71875 -36.343746q1.09375 -5.125 3.703125 -9.015625q2.625 -3.90625 6.46875 -6.34375l-0.125 0q3.671875 -2.171875 7.546875 -3.578125q3.875 -1.421875 7.203125 -1.421875l20.484375 0zm-16.109375 65.03125q4.734375 0 7.28125 -2.6875q2.5625 -2.6875 3.21875 -5.765625l7.671875 -36.093746q0.671875 -3.203125 -0.75 -5.828125q-1.421875 -2.625 -6.15625 -2.625l-15.875 0q-4.734375 0 -7.28125 2.625q-2.546875 2.625 -3.21875 5.828125l-7.671875 36.093746q-0.65625 3.078125 0.75 5.765625q1.421875 2.6875 6.15625 2.6875l15.875 0zm51.30237 6.65625q-1.296875 6.140625 -8.328125 6.140625q-7.296875 0 -6.0 -6.140625l11.265625 -52.999996q2.234375 -10.484375 9.359375 -14.578125q7.15625 -4.109375 15.34375 -4.109375l14.59375 0q4.734375 0 3.453125 6.015625q-1.015625 6.015625 -6.0 6.015625l-13.5625 0q-4.609375 0 -6.40625 1.796875q-1.796875 1.796875 -2.484375 5.0l-11.234375 52.85937zm96.79138 -59.656246l-24.703125 0q-5.25 0 -7.578125 3.078125q-2.359375 2.6875 -3.109375 6.265625l-7.84375 36.874996q-0.703125 3.328125 0.96875 5.0625q1.6875 1.71875 6.421875 1.71875l13.1875 0q4.609375 0 3.328125 6.015625q-0.546875 2.5625 -2.015625 4.296875q-1.453125 1.71875 -3.875 1.71875l-15.484375 0q-8.078125 0 -13.46875 -4.09375q-5.453125 -3.84375 -3.171875 -14.59375l8.109375 -38.14062q1.109375 -5.25 3.59375 -9.09375q2.484375 -3.84375 6.578125 -6.265625q7.8125 -4.875 14.59375 -4.875l27.015625 0l4.078125 -19.1875q1.3125 -6.15625 8.34375 -6.15625q7.046875 0 5.734375 6.15625l-19.3125 90.875q-1.296875 6.140625 -8.34375 6.140625q-2.6875 0 -4.65625 -0.953125q-1.96875 -0.96875 -1.265625 -4.296875l12.875 -60.54687z" fill-rule="nonzero"/></g></svg>